<?xml version="1.0" encoding="utf-8"?>
<!-- Generator: Adobe Illustrator 23.0.3, SVG Export Plug-In . SVG Version: 6.00 Build 0)  -->
<svg version="1.1" id="Layer_1" xmlns="http://www.w3.org/2000/svg" xmlns:xlink="http://www.w3.org/1999/xlink" x="0px" y="0px"
	 viewBox="0 0 512 512" style="enable-background:new 0 0 512 512;" xml:space="preserve">
<style type="text/css">
	.st0{fill:#FFFFFF;}
</style>
<path class="st0" d="M256,0C114.6,0,0,114.6,0,256s114.6,256,256,256s256-114.6,256-256S397.4,0,256,0z M348.2,262.8
	c0,7.5-6.1,13.7-13.7,13.7h-58v58c0,7.5-6.1,13.7-13.7,13.7h-13.7c-7.5,0-13.7-6.1-13.7-13.7v-58h-58c-7.5,0-13.7-6.1-13.7-13.7
	v-13.7c0-7.5,6.1-13.7,13.7-13.7h58v-58c0-7.5,6.1-13.7,13.7-13.7h13.7c7.5,0,13.7,6.1,13.7,13.7v58h58c7.5,0,13.7,6.1,13.7,13.7
	V262.8z"/>
</svg>
