<?xml version="1.0" encoding="utf-8"?>
<!-- Generator: Adobe Illustrator 23.0.3, SVG Export Plug-In . SVG Version: 6.00 Build 0)  -->
<svg version="1.1" id="Layer_1" xmlns="http://www.w3.org/2000/svg" xmlns:xlink="http://www.w3.org/1999/xlink" x="0px" y="0px"
	 viewBox="0 0 75 75" style="enable-background:new 0 0 75 75;" xml:space="preserve">
<style type="text/css">
	.st0{fill-rule:evenodd;clip-rule:evenodd;fill:#3C9AD6;}
	.st1{fill-rule:evenodd;clip-rule:evenodd;fill:#FFFFFF;}
	.st2{fill:url(#SVGID_1_);}
</style>
<path class="st0" d="M37.5,2.5c19.3,0,35,15.7,35,35s-15.7,35-35,35s-35-15.7-35-35S18.2,2.5,37.5,2.5z"/>
<path class="st1" d="M37.5,0C16.8,0,0,16.8,0,37.5S16.8,75,37.5,75S75,58.2,75,37.5S58.2,0,37.5,0z"/>
<linearGradient id="SVGID_1_" gradientUnits="userSpaceOnUse" x1="23.3268" y1="39.5" x2="51.6732" y2="39.5">
	<stop  offset="0" style="stop-color:#80D8FF"/>
	<stop  offset="1" style="stop-color:#EA80FC"/>
</linearGradient>
<path class="st2" d="M50.1,25.3l-25.1,0c-0.6,0-1.2,0.4-1.5,0.9c-0.3,0.6-0.2,1.2,0.3,1.7L32.7,38v14.1c0,0.7,0.4,1.3,1,1.5
	c0.2,0.1,0.4,0.1,0.6,0.1c0.4,0,0.9-0.2,1.2-0.5l6.4-7c0.3-0.3,0.4-0.7,0.4-1.1V38l9-10.1c0.4-0.5,0.5-1.1,0.3-1.7
	C51.3,25.6,50.7,25.3,50.1,25.3z M35.5,36.3l-7-7.9l18,0l-7,7.9C39.2,36.6,39,37,39,37.4v7.1L35.9,48V37.4
	C35.9,37,35.7,36.6,35.5,36.3z"/>
</svg>
